<?xml version="1.0" encoding="UTF-8"?>
<svg width="24px" height="13px" viewBox="0 0 24 13" version="1.1" xmlns="http://www.w3.org/2000/svg" xmlns:xlink="http://www.w3.org/1999/xlink">
    <!-- Generator: Sketch 53.2 (72643) - https://sketchapp.com -->
    <title>展开@3x</title>
    <desc>Created with Sketch.</desc>
    <g id="个人中心" stroke="none" stroke-width="1" fill="none" fill-rule="evenodd">
        <g id="个人中心-账户信息-获取统计-获取详情" transform="translate(-948.000000, -791.000000)">
            <g id="获取详情弹窗" transform="translate(560.000000, 247.000000)">
                <g id="张开" transform="translate(388.000000, 544.000000)">
                    <rect id="矩形" x="0" y="0" width="24" height="13"></rect>
                    <path d="M8.56170222,-6.75938609 C8.42881482,-7.00145127 8.51732091,-7.30541039 8.75938609,-7.43829778 C9.00145127,-7.57118518 9.30541039,-7.48267909 9.43829778,-7.24061391 L15.5695459,3.92795235 L9.43958823,15.2382482 C9.3080074,15.481026 9.00452971,15.5711691 8.76175183,15.4395882 C8.51897396,15.3080074 8.42883094,15.0045297 8.56041177,14.7617518 L14.4304541,3.931022 L8.56170222,-6.75938609 Z" id="路径-43" fill="#5091E6" fill-rule="nonzero" transform="translate(12.034725, 4.000001) rotate(90.000000) translate(-12.034725, -4.000001) "></path>
                    <path d="M14.4304541,8.931022 L8.56170222,-1.75938609 C8.42881482,-2.00145127 8.51732091,-2.30541039 8.75938609,-2.43829778 C9.00145127,-2.57118518 9.30541039,-2.48267909 9.43829778,-2.24061391 L15.5695459,8.92795235 L9.43958823,20.2382482 C9.3080074,20.481026 9.00452971,20.5711691 8.76175183,20.4395882 C8.51897396,20.3080074 8.42883094,20.0045297 8.56041177,19.7617518 L14.4304541,8.931022 Z" id="路径-43" fill="#5091E6" fill-rule="nonzero" transform="translate(12.034725, 9.000001) rotate(90.000000) translate(-12.034725, -9.000001) "></path>
                </g>
            </g>
        </g>
    </g>
</svg>